Babai Abbai (1984) Telugu Movie - teluguppls



General

Format                           : RealMedia
File size                        : 397 MiB
Duration                         : 2h 0mn
Overall bit rate                 : 451 Kbps


Video

Format                           : RealVideo 4
Codec ID                         : RV40
Codec ID/Info                    : Based on AVC (H.264), Real Player 9
Duration                         : 2h 0mn
Bit rate                         : 387 Kbps
Width                            : 352 pixels
Height                           : 288 pixels
Display aspect ratio             : 1.222
Frame rate                       : 30.000 fps
Standard                         : PAL
Bits/(Pixel*Frame)               : 0.127
Stream size                      : 335 MiB (84%)

Audio

Format                           : Cooker
Codec ID                         : cook
Codec ID/Info                    : Based on G.722.1, Real Player 6
Duration                         : 2h 0mn
Bit rate                         : 64.1 Kbps
Channel(s)                       : 2 channels
Sampling rate                    : 44.1 KHz
Bit depth                        : 16 bits
Stream size                      : 55.4 MiB (14%)



